<svg width="1294" height="773" viewBox="0 0 1294 773" fill="none" xmlns="http://www.w3.org/2000/svg">
<path d="M386.364 328.117C385.971 326.752 385.419 325.546 384.709 324.498C383.998 323.432 383.128 322.534 382.1 321.805C381.09 321.057 379.93 320.487 378.621 320.094C377.33 319.701 375.9 319.505 374.329 319.505C371.392 319.505 368.811 320.234 366.586 321.693C364.379 323.152 362.658 325.274 361.424 328.061C360.189 330.829 359.572 334.214 359.572 338.217C359.572 342.219 360.18 345.623 361.396 348.428C362.611 351.234 364.332 353.375 366.558 354.853C368.783 356.311 371.411 357.041 374.441 357.041C377.19 357.041 379.537 356.555 381.482 355.582C383.446 354.591 384.942 353.197 385.971 351.402C387.018 349.607 387.542 347.484 387.542 345.034L390.011 345.398H375.198V336.253H399.241V343.491C399.241 348.54 398.175 352.879 396.042 356.508C393.91 360.117 390.974 362.904 387.234 364.868C383.493 366.813 379.21 367.786 374.385 367.786C368.998 367.786 364.267 366.598 360.189 364.223C356.112 361.829 352.933 358.434 350.651 354.039C348.388 349.625 347.257 344.388 347.257 338.329C347.257 333.672 347.93 329.52 349.277 325.873C350.642 322.207 352.549 319.103 355 316.559C357.45 314.015 360.302 312.08 363.556 310.752C366.81 309.424 370.336 308.76 374.132 308.76C377.387 308.76 380.416 309.237 383.222 310.191C386.027 311.126 388.515 312.454 390.684 314.174C392.872 315.895 394.658 317.943 396.042 320.318C397.426 322.675 398.315 325.274 398.708 328.117H386.364ZM408.365 367V309.545H447.08V319.561H420.513V333.251H445.088V343.266H420.513V356.985H447.192V367H408.365ZM454.549 319.561V309.545H501.736V319.561H484.146V367H472.139V319.561H454.549ZM563.279 309.545H575.427V346.857C575.427 351.047 574.426 354.712 572.425 357.854C570.442 360.996 567.665 363.446 564.093 365.205C560.521 366.944 556.359 367.814 551.609 367.814C546.84 367.814 542.669 366.944 539.097 365.205C535.525 363.446 532.747 360.996 530.765 357.854C528.782 354.712 527.791 351.047 527.791 346.857V309.545H539.938V345.819C539.938 348.007 540.415 349.953 541.369 351.654C542.342 353.356 543.707 354.694 545.465 355.666C547.223 356.639 549.271 357.125 551.609 357.125C553.965 357.125 556.013 356.639 557.753 355.666C559.511 354.694 560.867 353.356 561.82 351.654C562.793 349.953 563.279 348.007 563.279 345.819V309.545ZM585.421 367V309.545H608.088C612.446 309.545 616.159 310.378 619.226 312.042C622.293 313.688 624.631 315.979 626.239 318.915C627.867 321.833 628.68 325.2 628.68 329.015C628.68 332.83 627.857 336.197 626.211 339.114C624.566 342.032 622.181 344.304 619.058 345.931C615.953 347.559 612.194 348.372 607.78 348.372H593.332V338.637H605.816C608.154 338.637 610.08 338.235 611.595 337.431C613.129 336.608 614.27 335.477 615.018 334.037C615.785 332.578 616.168 330.904 616.168 329.015C616.168 327.107 615.785 325.443 615.018 324.021C614.27 322.581 613.129 321.468 611.595 320.683C610.062 319.879 608.117 319.477 605.76 319.477H597.568V367H585.421ZM652.666 319.561V309.545H699.853V319.561H682.263V367H670.256V319.561H652.666ZM757.799 338.273C757.799 344.538 756.611 349.868 754.236 354.263C751.879 358.659 748.662 362.016 744.585 364.335C740.527 366.635 735.963 367.786 730.895 367.786C725.789 367.786 721.207 366.626 717.148 364.307C713.09 361.988 709.882 358.631 707.526 354.235C705.169 349.84 703.991 344.519 703.991 338.273C703.991 332.007 705.169 326.677 707.526 322.282C709.882 317.887 713.09 314.539 717.148 312.239C721.207 309.92 725.789 308.76 730.895 308.76C735.963 308.76 740.527 309.92 744.585 312.239C748.662 314.539 751.879 317.887 754.236 322.282C756.611 326.677 757.799 332.007 757.799 338.273ZM745.483 338.273C745.483 334.214 744.875 330.792 743.659 328.005C742.462 325.218 740.77 323.105 738.582 321.665C736.393 320.225 733.831 319.505 730.895 319.505C727.958 319.505 725.396 320.225 723.208 321.665C721.02 323.105 719.318 325.218 718.102 328.005C716.905 330.792 716.307 334.214 716.307 338.273C716.307 342.331 716.905 345.754 718.102 348.54C719.318 351.327 721.02 353.441 723.208 354.881C725.396 356.321 727.958 357.041 730.895 357.041C733.831 357.041 736.393 356.321 738.582 354.881C740.77 353.441 742.462 351.327 743.659 348.54C744.875 345.754 745.483 342.331 745.483 338.273ZM805.981 367.786C801.792 367.786 798.061 367.065 794.788 365.625C791.533 364.167 788.962 362.165 787.073 359.622C785.203 357.06 784.239 354.105 784.183 350.757H796.415C796.49 352.159 796.948 353.394 797.789 354.46C798.65 355.507 799.791 356.321 801.212 356.901C802.633 357.48 804.233 357.77 806.009 357.77C807.861 357.77 809.497 357.443 810.919 356.788C812.34 356.134 813.453 355.227 814.257 354.067C815.061 352.908 815.463 351.57 815.463 350.055C815.463 348.522 815.033 347.166 814.173 345.988C813.331 344.791 812.116 343.855 810.526 343.182C808.955 342.509 807.085 342.172 804.915 342.172H799.557V333.251H804.915C806.748 333.251 808.366 332.933 809.769 332.297C811.19 331.661 812.293 330.782 813.079 329.66C813.864 328.519 814.257 327.191 814.257 325.676C814.257 324.236 813.911 322.974 813.219 321.889C812.546 320.786 811.592 319.925 810.358 319.308C809.142 318.691 807.721 318.382 806.093 318.382C804.448 318.382 802.942 318.682 801.577 319.28C800.211 319.86 799.117 320.692 798.294 321.777C797.472 322.862 797.032 324.134 796.976 325.592H785.333C785.39 322.282 786.334 319.364 788.167 316.839C790 314.315 792.469 312.341 795.573 310.92C798.697 309.48 802.222 308.76 806.15 308.76C810.115 308.76 813.584 309.48 816.558 310.92C819.531 312.36 821.841 314.305 823.487 316.755C825.151 319.187 825.974 321.917 825.956 324.947C825.974 328.164 824.974 330.848 822.954 332.999C820.953 335.149 818.344 336.515 815.127 337.094V337.543C819.354 338.086 822.57 339.554 824.777 341.948C827.003 344.323 828.106 347.297 828.088 350.869C828.106 354.142 827.162 357.05 825.254 359.594C823.365 362.137 820.756 364.138 817.427 365.597C814.098 367.056 810.283 367.786 805.981 367.786ZM859.347 368.262C854.522 368.244 850.37 367.056 846.891 364.7C843.431 362.343 840.766 358.93 838.896 354.46C837.044 349.99 836.128 344.613 836.146 338.329C836.146 332.063 837.072 326.724 838.924 322.31C840.794 317.896 843.459 314.539 846.919 312.239C850.398 309.92 854.54 308.76 859.347 308.76C864.153 308.76 868.287 309.92 871.747 312.239C875.225 314.558 877.9 317.924 879.77 322.338C881.64 326.733 882.566 332.063 882.548 338.329C882.548 344.632 881.612 350.018 879.742 354.488C877.891 358.958 875.235 362.371 871.775 364.728C868.315 367.084 864.172 368.262 859.347 368.262ZM859.347 358.191C862.639 358.191 865.266 356.536 867.23 353.225C869.194 349.915 870.166 344.95 870.148 338.329C870.148 333.971 869.699 330.343 868.801 327.444C867.922 324.545 866.669 322.366 865.042 320.907C863.433 319.449 861.535 318.719 859.347 318.719C856.074 318.719 853.456 320.356 851.492 323.629C849.528 326.902 848.537 331.802 848.518 338.329C848.518 342.743 848.958 346.427 849.837 349.382C850.734 352.318 851.997 354.525 853.624 356.003C855.251 357.462 857.159 358.191 859.347 358.191ZM922.658 356.227V353.197C922.658 350.897 923.144 348.784 924.117 346.857C925.108 344.912 926.539 343.36 928.409 342.2C930.298 341.022 932.598 340.433 935.31 340.433C938.059 340.433 940.369 341.013 942.239 342.172C944.128 343.332 945.55 344.884 946.504 346.829C947.476 348.756 947.962 350.878 947.962 353.197V356.227C947.962 358.528 947.476 360.65 946.504 362.596C945.531 364.522 944.1 366.065 942.211 367.224C940.322 368.403 938.022 368.992 935.31 368.992C932.561 368.992 930.251 368.403 928.381 367.224C926.51 366.065 925.089 364.522 924.117 362.596C923.144 360.65 922.658 358.528 922.658 356.227ZM930.821 353.197V356.227C930.821 357.555 931.139 358.808 931.775 359.987C932.43 361.165 933.608 361.754 935.31 361.754C937.012 361.754 938.172 361.174 938.789 360.015C939.425 358.855 939.743 357.593 939.743 356.227V353.197C939.743 351.832 939.443 350.56 938.845 349.382C938.246 348.204 937.068 347.615 935.31 347.615C933.627 347.615 932.458 348.204 931.803 349.382C931.149 350.56 930.821 351.832 930.821 353.197ZM893.173 323.348V320.318C893.173 317.999 893.669 315.876 894.66 313.95C895.651 312.005 897.082 310.453 898.952 309.293C900.841 308.133 903.123 307.554 905.797 307.554C908.565 307.554 910.884 308.133 912.755 309.293C914.625 310.453 916.046 312.005 917.019 313.95C917.991 315.876 918.478 317.999 918.478 320.318V323.348C918.478 325.667 917.982 327.79 916.991 329.716C916.018 331.643 914.588 333.186 912.699 334.345C910.828 335.486 908.528 336.056 905.797 336.056C903.067 336.056 900.757 335.477 898.868 334.317C896.998 333.139 895.576 331.596 894.604 329.688C893.65 327.762 893.173 325.648 893.173 323.348ZM901.393 320.318V323.348C901.393 324.713 901.711 325.976 902.347 327.135C903.001 328.295 904.151 328.875 905.797 328.875C907.518 328.875 908.687 328.295 909.304 327.135C909.94 325.976 910.258 324.713 910.258 323.348V320.318C910.258 318.953 909.959 317.681 909.36 316.503C908.762 315.325 907.574 314.735 905.797 314.735C904.133 314.735 902.983 315.334 902.347 316.531C901.711 317.728 901.393 318.99 901.393 320.318ZM896.876 367L936.376 309.545H943.726L904.226 367H896.876ZM484.924 434.273C484.924 440.538 483.737 445.868 481.362 450.263C479.005 454.659 475.788 458.016 471.711 460.335C467.653 462.635 463.089 463.786 458.021 463.786C452.915 463.786 448.333 462.626 444.274 460.307C440.216 457.988 437.008 454.631 434.652 450.235C432.295 445.84 431.117 440.519 431.117 434.273C431.117 428.007 432.295 422.677 434.652 418.282C437.008 413.887 440.216 410.539 444.274 408.239C448.333 405.92 452.915 404.76 458.021 404.76C463.089 404.76 467.653 405.92 471.711 408.239C475.788 410.539 479.005 413.887 481.362 418.282C483.737 422.677 484.924 428.007 484.924 434.273ZM472.609 434.273C472.609 430.214 472.001 426.792 470.785 424.005C469.588 421.218 467.896 419.105 465.708 417.665C463.519 416.225 460.957 415.505 458.021 415.505C455.084 415.505 452.522 416.225 450.334 417.665C448.146 419.105 446.444 421.218 445.228 424.005C444.031 426.792 443.433 430.214 443.433 434.273C443.433 438.331 444.031 441.754 445.228 444.54C446.444 447.327 448.146 449.441 450.334 450.881C452.522 452.321 455.084 453.041 458.021 453.041C460.957 453.041 463.519 452.321 465.708 450.881C467.896 449.441 469.588 447.327 470.785 444.54C472.001 441.754 472.609 438.331 472.609 434.273ZM493.923 463V405.545H531.964V415.561H506.07V429.251H529.439V439.266H506.07V463H493.923ZM540.135 463V405.545H578.176V415.561H552.282V429.251H575.651V439.266H552.282V463H540.135ZM635.799 422.069C635.574 419.806 634.611 418.048 632.909 416.795C631.207 415.542 628.898 414.915 625.98 414.915C623.997 414.915 622.324 415.196 620.958 415.757C619.593 416.299 618.546 417.057 617.816 418.029C617.105 419.002 616.75 420.105 616.75 421.34C616.713 422.368 616.928 423.266 617.395 424.033C617.882 424.8 618.546 425.464 619.387 426.025C620.229 426.567 621.201 427.044 622.305 427.456C623.408 427.848 624.587 428.185 625.84 428.466L631.002 429.7C633.508 430.261 635.808 431.009 637.903 431.944C639.998 432.879 641.812 434.03 643.345 435.395C644.879 436.76 646.067 438.369 646.908 440.22C647.768 442.072 648.208 444.194 648.227 446.588C648.208 450.105 647.31 453.153 645.534 455.734C643.775 458.296 641.232 460.288 637.903 461.71C634.592 463.112 630.599 463.814 625.924 463.814C621.286 463.814 617.246 463.103 613.804 461.681C610.382 460.26 607.707 458.156 605.781 455.369C603.873 452.564 602.873 449.095 602.779 444.961H614.534C614.665 446.888 615.217 448.496 616.189 449.787C617.18 451.058 618.499 452.022 620.145 452.676C621.809 453.312 623.689 453.63 625.784 453.63C627.841 453.63 629.627 453.331 631.142 452.732C632.675 452.134 633.863 451.301 634.705 450.235C635.546 449.169 635.967 447.944 635.967 446.56C635.967 445.27 635.584 444.185 634.817 443.306C634.069 442.427 632.965 441.679 631.507 441.062C630.066 440.445 628.299 439.884 626.204 439.379L619.948 437.808C615.104 436.629 611.28 434.787 608.474 432.281C605.669 429.775 604.275 426.399 604.294 422.153C604.275 418.675 605.201 415.636 607.072 413.036C608.96 410.436 611.551 408.407 614.842 406.948C618.134 405.489 621.875 404.76 626.064 404.76C630.328 404.76 634.05 405.489 637.23 406.948C640.428 408.407 642.915 410.436 644.692 413.036C646.469 415.636 647.385 418.647 647.441 422.069H635.799ZM656.397 463V405.545H668.545V429.251H693.204V405.545H705.324V463H693.204V439.266H668.545V463H656.397ZM727.486 405.545V463H715.339V405.545H727.486ZM737.48 463V405.545H760.148C764.487 405.545 768.19 406.322 771.257 407.874C774.343 409.408 776.691 411.586 778.299 414.411C779.926 417.216 780.74 420.517 780.74 424.314C780.74 428.129 779.917 431.411 778.271 434.161C776.625 436.891 774.24 438.986 771.117 440.445C768.013 441.903 764.253 442.633 759.839 442.633H744.662V432.87H757.876C760.195 432.87 762.121 432.552 763.655 431.916C765.188 431.28 766.329 430.326 767.077 429.055C767.844 427.783 768.228 426.203 768.228 424.314C768.228 422.406 767.844 420.797 767.077 419.488C766.329 418.179 765.179 417.188 763.627 416.515C762.093 415.823 760.157 415.477 757.82 415.477H749.628V463H737.48ZM768.508 436.854L782.788 463H769.378L755.407 436.854H768.508ZM787.136 415.561V405.545H834.323V415.561H816.733V463H804.726V415.561H787.136ZM873.262 422.069C873.037 419.806 872.074 418.048 870.372 416.795C868.67 415.542 866.36 414.915 863.443 414.915C861.46 414.915 859.786 415.196 858.421 415.757C857.056 416.299 856.008 417.057 855.279 418.029C854.568 419.002 854.213 420.105 854.213 421.34C854.176 422.368 854.391 423.266 854.858 424.033C855.345 424.8 856.008 425.464 856.85 426.025C857.692 426.567 858.664 427.044 859.768 427.456C860.871 427.848 862.049 428.185 863.303 428.466L868.464 429.7C870.971 430.261 873.271 431.009 875.366 431.944C877.46 432.879 879.275 434.03 880.808 435.395C882.342 436.76 883.529 438.369 884.371 440.22C885.231 442.072 885.671 444.194 885.69 446.588C885.671 450.105 884.773 453.153 882.996 455.734C881.238 458.296 878.695 460.288 875.366 461.71C872.055 463.112 868.062 463.814 863.387 463.814C858.748 463.814 854.709 463.103 851.267 461.681C847.845 460.26 845.17 458.156 843.244 455.369C841.336 452.564 840.336 449.095 840.242 444.961H851.997C852.128 446.888 852.679 448.496 853.652 449.787C854.643 451.058 855.962 452.022 857.608 452.676C859.272 453.312 861.152 453.63 863.246 453.63C865.304 453.63 867.09 453.331 868.605 452.732C870.138 452.134 871.326 451.301 872.168 450.235C873.009 449.169 873.43 447.944 873.43 446.56C873.43 445.27 873.047 444.185 872.28 443.306C871.532 442.427 870.428 441.679 868.969 441.062C867.529 440.445 865.762 439.884 863.667 439.379L857.411 437.808C852.567 436.629 848.742 434.787 845.937 432.281C843.132 429.775 841.738 426.399 841.757 422.153C841.738 418.675 842.664 415.636 844.534 413.036C846.423 410.436 849.014 408.407 852.305 406.948C855.597 405.489 859.338 404.76 863.527 404.76C867.791 404.76 871.513 405.489 874.692 406.948C877.891 408.407 880.378 410.436 882.155 413.036C883.932 415.636 884.848 418.647 884.904 422.069H873.262Z" fill="#404040"/>
<path d="M1033.27 229.358L1123.67 171.101L1168.32 211.15L1293.89 74.0096L1178.28 0.116765L1132 121.152L1100.56 89.827L1033.27 229.358Z" fill="#EC5B09"/>
<path d="M1025.72 241.811L1118.31 187.1L1161.38 228.85L1292.17 96.6783L1179.51 18.3609L1128.58 137.512L1098.37 104.992L1025.72 241.811Z" fill="#FFB906"/>
<path d="M273.695 572.755L178.17 615.625L141.036 570.551L0.137076 684.213L100.625 772.228L162.85 662.486L188.54 697.231L273.695 572.755Z" fill="#EC5B09"/>
<path d="M282.777 561.871L185.663 601.007L150.303 554.528L5.10524 662.644L102.107 754.488L168.538 647.239L192.862 682.954L282.777 561.871Z" fill="#FFB906"/>
</svg>
